<svg width="2141" height="2202" viewBox="0 0 2141 2202" fill="none" xmlns="http://www.w3.org/2000/svg">
<path d="M567.241 1189.55L211.902 1112.57L464.966 797.699L567.241 1189.55Z" fill="#FDC446" fill-opacity="0.8"/>
<path d="M831.447 860.824L472.924 787.798L727.58 470.952L831.447 860.824Z" fill="#FDC446" fill-opacity="0.8"/>
<path d="M1089.29 540.017L733.948 463.031L988.604 146.184L1089.29 540.017Z" fill="#FDC446" fill-opacity="0.8"/>
<path d="M730.764 466.988L1086.1 543.975L834.631 856.861L730.764 466.988Z" fill="#FDC446"/>
<path d="M469.745 791.753L828.267 864.779L570.426 1185.59L469.745 791.753Z" fill="#FDC446"/>
<path d="M212.68 1119.71L564.059 1193.51L309.404 1510.36L212.68 1119.71Z" fill="#FDC446"/>
<path d="M1404.77 1745.35L1049.43 1668.37L1304.09 1351.52L1404.77 1745.35Z" fill="#44ABB6" fill-opacity="0.8"/>
<path d="M1042.29 1669.14L679.807 1592.93L934.464 1276.09L1042.29 1669.14Z" fill="#44ABB6" fill-opacity="0.8"/>
<path d="M1150.9 2069.34L788.412 1993.13L1043.07 1676.28L1150.9 2069.34Z" fill="#44ABB6" fill-opacity="0.8"/>
<path d="M672.663 1593.71L313.363 1513.54L568.019 1196.69L672.663 1593.71Z" fill="#FDC446" fill-opacity="0.8"/>
<path d="M1668.98 1416.62L1310.46 1343.6L1565.11 1026.75L1668.98 1416.62Z" fill="#44ABB6" fill-opacity="0.8"/>
<path d="M1568.3 1022.79L1926.82 1095.81L1672.16 1412.66L1568.3 1022.79Z" fill="#44ABB6"/>
<path d="M1307.27 1347.56L1665.8 1420.58L1407.96 1741.39L1307.27 1347.56Z" fill="#44ABB6"/>
<path d="M1046.25 1672.32L1401.59 1749.31L1154.08 2065.38L1046.25 1672.32Z" fill="#44ABB6"/>
<path d="M571.206 1192.73L930.506 1272.9L675.848 1589.75L571.206 1192.73Z" fill="#FDC446"/>
<path d="M676.624 1596.89L1039.11 1673.1L784.451 1989.95L676.624 1596.89Z" fill="#44ABB6"/>
<path d="M1930 1091.85L1571.43 1018.79L1826.09 701.945L1930 1091.85Z" fill="#44ABB6" fill-opacity="0.8"/>
<path d="M1093.25 543.198L1459.69 622.589L1205.04 939.434L1093.25 543.198Z" fill="#FDC446"/>
<path d="M991.786 142.222L1347.13 219.209L1092.47 536.057L991.786 142.222Z" fill="#FDC446"/>
<path d="M1466.83 621.81L1822.13 698.76L1567.47 1015.61L1466.83 621.81Z" fill="#45ABB6"/>
<path d="M1564.33 1019.6L1209 942.62L1463.65 625.774L1564.33 1019.6Z" fill="#44ABB6" fill-opacity="0.8"/>
<path d="M1462.88 618.63L1096.43 539.24L1351.02 222.338L1462.88 618.63Z" fill="#FDC446" fill-opacity="0.8"/>
</svg>
